<svg width="32" height="32" viewBox="0 0 512 512" xmlns="http://www.w3.org/2000/svg" role="img" aria-label="ZAFU">
  <path d="M0 0 C0 0.66 0 1.32 0 2 C0.82242188 2.12375 1.64484375 2.2475 2.4921875 2.375 C6.42517257 3.07575458 10.25699901 4.00967693 14.125 5 C15.17880859 5.26683594 15.17880859 5.26683594 16.25390625 5.5390625 C18.16970046 6.02434875 20.08487725 6.51207064 22 7 C23.33308715 7.33431653 24.66626115 7.66829293 26 8 C26 8.66 26 9.32 26 10 C26.75539063 10.11214844 27.51078125 10.22429688 28.2890625 10.33984375 C33.35854197 11.24167747 38.35814132 12.40700416 43.375 13.5625 C44.39722656 13.79646484 45.41945313 14.03042969 46.47265625 14.27148438 C48.98213566 14.8460848 51.49123214 15.42230225 54 16 C54 16.66 54 17.32 54 18 C54.86625 17.95875 55.7325 17.9175 56.625 17.875 C60.16726367 18.00619495 62.66841364 18.84414351 66 20 C67.093125 20.144375 68.18625 20.28875 69.3125 20.4375 C73.01078265 21.00164481 76.1973337 22.00280253 79.7109375 23.234375 C83.09643821 24.36672677 86.52704697 25.17912019 90 26 C90 26.66 90 27.32 90 28 C90.6290625 28.04898438 91.258125 28.09796875 91.90625 28.1484375 C97.46913314 28.63435199 102.61993052 29.50553626 108 31 C108 31.66 108 32.32 108 33 C109.11375 33.185625 109.11375 33.185625 110.25 33.375 C113 34 113 34 114.8359375 34.9765625 C117.35659003 36.16864005 119.62362989 36.56841253 122.375 37 C126.42954552 37.68202289 130.09926366 38.69975455 134 40 C136.66429687 40.4334962 139.31289569 40.72202369 142 41 C142 41.66 142 42.32 142 43 C142.61488281 42.98839844 143.22976563 42.97679687 143.86328125 42.96484375 C144.67152344 42.95582031 145.47976563 42.94679687 146.3125 42.9375 C147.11300781 42.92589844 147.91351563 42.91429687 148.73828125 42.90234375 C151 43 151 43 154 44 C154 44.66 154 45.32 154 46 C154.804375 46.144375 155.60875 46.28875 156.4375 46.4375 C159 47 159 47 160 48 C160.09861162 49.61597685 160.12798763 51.23624238 160.12939453 52.85522461 C160.13254669 53.8897728 160.13569885 54.92432098 160.13894653 55.99021912 C160.13591019 57.67922081 160.13591019 57.67922081 160.1328125 59.40234375 C160.13424759 61.12439781 160.13424759 61.12439781 160.13571167 62.88124084 C160.13639374 65.31495213 160.13453758 67.74866523 160.13037109 70.18237305 C160.12502811 73.91784743 160.13031269 77.65320129 160.13671875 81.38867188 C160.13605788 83.7473961 160.13477653 86.10612025 160.1328125 88.46484375 C160.13483673 89.58882065 160.13686096 90.71279755 160.13894653 91.87083435 C160.13579437 92.9085347 160.13264221 93.94623505 160.12939453 95.01538086 C160.12820114 96.38985634 160.12820114 96.38985634 160.12698364 97.792099 C160 100 160 100 159 102 C158.34 102 157.68 102 157 102 C156.7525 102.556875 156.505 103.11375 156.25 103.6875 C153.397891 108.96390165 149.96524862 111.75738866 145 115 C140.91588635 118.76168363 137.36895004 122.98820961 133.76953125 127.20703125 C133.18558594 127.79871094 132.60164063 128.39039063 132 129 C131.34 129 130.68 129 130 129 C129.34 130.32 128.68 131.64 128 133 C127.34 133 126.68 133 126 133 C125.62875 133.9590625 125.62875 133.9590625 125.25 134.9375 C124 137 124 137 121.875 137.75 C121.25625 137.8325 120.6375 137.915 120 138 C120 138.99 120 139.98 120 141 C119.34 141 118.68 141 118 141 C117.75894531 141.57878906 117.51789063 142.15757812 117.26953125 142.75390625 C115.75888014 145.42659668 114.02455921 146.95394554 111.6875 148.9375 C108.32046875 151.846615 105.10515795 154.80858766 102 158 C100.33481022 159.66814224 98.66783095 161.33449843 97 163 C95.87491604 164.12491604 94.74992104 165.24992105 93.625 166.375 C91.20833333 168.79166667 88.79166667 171.20833333 86.375 173.625 C85.51201294 174.48907471 85.51201294 174.48907471 84.6315918 175.37060547 C83.18280861 176.81743758 81.72668969 178.25691576 80.26953125 179.6953125 C78.30323501 181.69206771 76.48358364 183.72683049 74.6875 185.875 C71.80083743 189.20671547 68.73600442 192.03424185 65.37890625 194.87890625 C60.53712917 199.19595872 56.03983195 203.88445544 51.48535156 208.50073242 C50.12580593 209.87301542 48.75300218 211.23213048 47.37890625 212.58984375 C45.03211819 214.96745989 42.82480901 217.42399981 40.625 219.9375 C37.42725574 223.52963272 34.15715462 226.66430086 30.4296875 229.6875 C28.45435846 231.50091682 27.32107277 233.68812265 26 236 C25.01 236.33 24.02 236.66 23 237 C21.32116322 238.6940569 21.32116322 238.6940569 19.6875 240.75 C17.47242142 243.37423323 15.30117972 245.72115897 12.625 247.875 C9.96206806 249.73102809 9.96206806 249.73102809 9 252 C8.34 252 7.68 252 7 252 C6.731875 252.639375 6.46375 253.27875 6.1875 253.9375 C5 256 5 256 2 257 C1.31513275 258.32407669 0.65129797 259.65909241 0 261 C-2 263.25 -2 263.25 -4 265 C-4.66 265 -5.32 265 -6 265 C-6.24492187 265.57105469 -6.48984375 266.14210938 -6.7421875 266.73046875 C-9.9945715 272.59890076 -15.9611973 277.15934466 -21 281.5 C-24.04945145 284.1383584 -27.02440862 286.8361637 -29.9375 289.625 C-30.68902344 290.33914063 -31.44054687 291.05328125 -32.21484375 291.7890625 C-34.44099255 294.19679802 -34.44099255 294.19679802 -35 299 C23.08 299 81.16 299 141 299 C141 300.98 141 302.96 141 305 C139.1875 306.5625 139.1875 306.5625 137 308 C135.35248593 310.40790517 134.13053558 312.64610355 133.12109375 315.3828125 C130.31994753 321.9220737 124.96047977 327.03952023 120 332 C117.9596119 334.60989401 115.94751552 337.23659309 113.96484375 339.890625 C111.86819283 342.14150273 110.93263799 342.4869467 108 343 C107.71125 343.598125 107.4225 344.19625 107.125 344.8125 C105.80566182 347.3778798 104.25849687 348.24693819 101.84375 349.7265625 C98.70450513 351.89476976 96.01472454 354.579672 93.24609375 357.1953125 C90.91060963 359.07182322 88.8215261 360.0380034 86 361 C86 361.66 86 362.32 86 363 C84.53125 364.296875 84.53125 364.296875 82.5 365.75 C78.84913799 368.38277083 75.29175433 371.10591442 71.76171875 373.8984375 C70 375 70 375 67 375 C66.773125 375.598125 66.54625 376.19625 66.3125 376.8125 C64.64390958 379.59348403 62.8716168 380.5641916 60 382 C59.34 382 58.68 382 58 382 C58 382.66 58 383.32 58 384 C56.09375 385.33203125 56.09375 385.33203125 53.5 386.8125 C49.54113621 389.10594942 45.64531299 391.46043851 41.7890625 393.921875 C40 395 40 395 37.8359375 396.015625 C35.82682562 396.86555996 35.82682562 396.86555996 35 399 C29.26114238 402.56444617 23.19739022 405.34397562 17 408 C11.74508126 410.70639592 6.71816049 413.43359603 2 417 C0.34795544 417.70211894 -1.31923769 418.36971413 -3 419 C-3.66 419.37125 -4.32 419.7425 -5 420.125 C-7.44288623 421.19376273 -9.36175261 421.1465693 -12 421 C-12 420.34 -12 419.68 -12 419 C-12.845625 418.9175 -13.69125 418.835 -14.5625 418.75 C-18.0828938 417.98191408 -20.2588609 416.82355013 -23.27734375 414.97265625 C-25.15412932 413.83834893 -25.15412932 413.83834893 -28.0625 413 C-32.01805093 411.65342947 -36.06886264 409.86227472 -38 406 C-39.94953862 404.94340175 -41.93500873 403.95243342 -43.9375 403 C-49.7904328 400.2095672 -49.7904328 400.2095672 -52 398 C-53.155 397.5875 -54.31 397.175 -55.5 396.75 C-61.67381459 394.53375887 -68.3071505 391.53927425 -72 386 C-74.2849403 384.42910354 -76.63613112 383.16930384 -79.14868164 382.00024414 C-85.57771604 378.97447688 -90.93000775 375.27538745 -96.4375 370.8125 C-97.99814798 369.56832029 -99.55932335 368.32480174 -101.12109375 367.08203125 C-101.7958374 366.53780518 -102.47058105 365.9935791 -103.16577148 365.43286133 C-104.72325169 364.21619005 -106.35556177 363.09629215 -108 362 C-108 361.01 -108 360.02 -108 359 C-109.32 358.67 -110.64 358.34 -112 358 C-112 357.34 -112 356.68 -112 356 C-112.79664063 355.65775391 -112.79664063 355.65775391 -113.609375 355.30859375 C-116.77943825 353.57334671 -119.4792401 351.35931413 -122.25 349.0625 C-122.80429688 348.61970703 -123.35859375 348.17691406 -123.9296875 347.72070312 C-125.34668922 346.54975713 -126.68063258 345.27995235 -128 344 C-128 343.01 -128 342.02 -128 341 C-128.7115625 340.79890625 -129.423125 340.5978125 -130.15625 340.390625 C-133.8575185 338.58066403 -135.98072368 335.904388 -138.5 332.75 C-138.96019531 332.18925781 -139.42039063 331.62851562 -139.89453125 331.05078125 C-140.81387572 329.92943997 -141.72801798 328.80381194 -142.63671875 327.67382812 C-144.00885406 325.98912904 -145.42454485 324.34820364 -146.84375 322.703125 C-149 320 -149 320 -149 318 C-149.99 317.67 -150.98 317.34 -152 317 C-154.86935543 313.31082874 -156 311.75567676 -156 307 C-156.66 307 -157.32 307 -158 307 C-159.79395105 303.98616224 -160.94426708 301.64092859 -161.25 298.125 C-159.56139877 293.90349693 -156.85046346 291.93455787 -153.39453125 289.06640625 C-151.20689384 287.17854298 -149.40750822 285.27739054 -147.5625 283.0625 C-144.91416225 279.92259144 -142.08499518 277.2127484 -139 274.5 C-134.59112996 270.61060408 -130.77413597 266.49465284 -127 262 C-122.91291524 257.25269385 -119.01362579 252.79409519 -114 249 C-112.31824194 247.34669273 -110.65715107 245.67774785 -109 244 C-107.6140598 242.61250314 -106.22725396 241.2258707 -104.83984375 239.83984375 C-104.05552979 239.05552979 -103.27121582 238.27121582 -102.46313477 237.46313477 C-92.69547526 227.69547526 -82.92781576 217.92781576 -73.16015625 208.16015625 C-72.4329689 207.4326416 -71.70578156 206.70512695 -70.95655823 205.95556641 C-69.77459147 204.77419881 -68.5915827 203.5938707 -67.40660095 202.41552734 C-64.67703499 199.70018194 -62.1007172 196.89564886 -59.5625 194 C-57.06060317 191.19471701 -54.62493039 188.53595323 -51.6875 186.1875 C-48.99114443 183.99279197 -47.12217538 181.73829081 -45 179 C-41.99105201 175.7255566 -38.76079571 173.01896481 -35.25 170.3125 C-29.85124354 166.04948194 -25.47166488 161.20382127 -21 156 C-19.48560697 154.26519017 -17.96480726 152.53595117 -16.4375 150.8125 C-15.44556641 149.67748047 -15.44556641 149.67748047 -14.43359375 148.51953125 C-12.43331837 146.44862014 -10.4207816 144.59915478 -8.2421875 142.7265625 C-3.03705416 138.23841641 1.68439156 133.30162129 6.43945312 128.34570312 C7.11556641 127.65541016 7.79167969 126.96511719 8.48828125 126.25390625 C9.09196533 125.62814697 9.69564941 125.0023877 10.31762695 124.35766602 C12 123 12 123 15 123 C15.33 120.69 15.66 118.38 16 116 C14.51849048 116.00276538 14.51849048 116.00276538 13.00705147 116.00558662 C-10.99443999 116.04993105 -34.99592615 116.08282549 -58.99744987 116.10362434 C-70.60427173 116.11394913 -82.21106657 116.12803237 -93.81787109 116.15087891 C-103.93107945 116.17077605 -114.04426824 116.18370768 -124.15749562 116.18817699 C-129.51532926 116.19079062 -134.87310694 116.1969586 -140.2309227 116.21146011 C-145.26887191 116.22498602 -150.30674184 116.22923281 -155.34470749 116.22621536 C-157.19831268 116.22676777 -159.0519204 116.23077482 -160.90550995 116.23841095 C-163.42724843 116.24829422 -165.94868364 116.24599332 -168.47042847 116.24050903 C-169.58228305 116.24924756 -169.58228305 116.24924756 -170.71659935 116.25816262 C-175.77175758 116.22824242 -175.77175758 116.22824242 -178 114 C-178.24050903 111.25387573 -178.24050903 111.25387573 -178.22705078 107.71435547 C-178.22734283 107.07032776 -178.22763489 106.42630005 -178.22793579 105.76275635 C-178.22654074 103.63076373 -178.21097174 101.49911918 -178.1953125 99.3671875 C-178.19158298 97.89031159 -178.18873572 96.41343322 -178.18673706 94.93655396 C-178.17909574 91.04682602 -178.15944308 87.15724712 -178.1373291 83.26757812 C-178.11688135 79.29949968 -178.10773764 75.33139718 -178.09765625 71.36328125 C-178.07619756 63.57545284 -178.04205572 55.78774729 -178 48 C-173.80440037 45.81865382 -170.38374581 44.51832134 -165.6875 43.875 C-162.02899582 43.64388582 -162.02899582 43.64388582 -159 42 C-157.33382885 41.95936168 -155.66611905 41.957279 -154 42 C-154 41.34 -154 40.68 -154 40 C-153.11248047 39.81824219 -153.11248047 39.81824219 -152.20703125 39.6328125 C-147.93459996 38.7267504 -144.04594825 37.6598762 -140 36 C-138.02595098 35.51457811 -136.05163682 35.03010379 -134.07421875 34.55859375 C-131.47679264 33.85909858 -129.03192192 32.83396933 -126.53125 31.8515625 C-122.38547468 30.45684179 -118.12230305 29.5089047 -113.87207031 28.48974609 C-110.23486896 27.60398059 -106.72836789 26.63611653 -103.25 25.25 C-100 24 -100 24 -96 24 C-96 23.34 -96 22.68 -96 22 C-95.40050537 21.86424561 -94.80101074 21.72849121 -94.18334961 21.58862305 C-91.43312399 20.96175094 -88.6853483 20.32470868 -85.9375 19.6875 C-84.52307617 19.36749023 -84.52307617 19.36749023 -83.08007812 19.04101562 C-78.99191304 18.08663562 -75.05621356 17.14564824 -71.21484375 15.4296875 C-68.01136021 14.00505205 -65.04524744 13.17644235 -61.625 12.4375 C-60.5009375 12.18871094 -59.376875 11.93992187 -58.21875 11.68359375 C-56.28282821 11.27244531 -54.3456715 10.86696634 -52.40625 10.47265625 C-47.61998835 9.48098217 -43.4902624 7.99567218 -39 6 C-37.71458747 5.60409294 -36.42273 5.22844679 -35.125 4.875 C-32.15547637 4.31889678 -32.15547637 4.31889678 -31 3 C-28.00401076 2.27516389 -25.01764167 1.62127917 -22 1 C-20.68515625 0.69835938 -20.68515625 0.69835938 -19.34375 0.390625 C-12.64988595 -1.03278287 -6.76390478 -0.96814111 0 0 Z " fill="#5e6ad2" transform="translate(264,45)"/>
  <path d="M0 0 C1.98 0 3.96 0 6 0 C6.02346682 9.23390022 6.041086 18.46778972 6.05181217 27.70171356 C6.05696758 31.99223403 6.06392646 36.28273369 6.07543945 40.57324219 C6.12557137 59.74415342 6.06420522 78.85150464 5 98 C4.34 98 3.68 98 3 98 C3.02320313 98.60328125 3.04640625 99.2065625 3.0703125 99.828125 C3.08835937 100.62734375 3.10640625 101.4265625 3.125 102.25 C3.14820313 103.03890625 3.17140625 103.8278125 3.1953125 104.640625 C3 107 3 107 1 111 C-33.65 111 -68.3 111 -104 111 C-104 107 -104 107 -101.8515625 104.5390625 C-99.08041169 102.07159945 -96.26996366 99.69575599 -93.375 97.375 C-89.69701811 94.44908311 -89.69701811 94.44908311 -86.2890625 91.2265625 C-85 90 -85 90 -83 90 C-82.938125 89.443125 -82.87625 88.88625 -82.8125 88.3125 C-81.64834483 84.99913528 -79.60541556 83.29524704 -77 81 C-75.515 80.505 -75.515 80.505 -74 80 C-73.30238647 78.68259437 -72.63910062 77.34676376 -72 76 C-70.44921875 74.2890625 -70.44921875 74.2890625 -68.6875 72.625 C-66.46690339 70.47750945 -64.51963516 68.40878174 -62.5625 66 C-59.92923666 62.91715512 -57.12617794 60.41661225 -54.05078125 57.79296875 C-50.875458 55.016829 -47.95067857 52.01035522 -45 49 C-43.33333333 47.33333333 -41.66666667 45.66666667 -40 44 C-38.82516547 42.81415404 -37.65071304 41.62792946 -36.4765625 40.44140625 C-35.19275502 39.14839114 -33.90889992 37.85542332 -32.625 36.5625 C-31.99078125 35.91990234 -31.3565625 35.27730469 -30.703125 34.61523438 C-27.11222919 31.00601767 -23.45380519 27.58525924 -19.51953125 24.35180664 C-17.95623534 22.96106604 -16.68351634 21.50532831 -15.375 19.875 C-13 17 -13 17 -10.25 14.875 C-7.72840864 12.77367387 -7.68752656 12.04476049 -7 9 C-6.38125 8.54625 -5.7625 8.0925 -5.125 7.625 C-2.35677605 5.50812286 -1.39787073 3.14520914 0 0 Z " fill="#5e6ad2" transform="translate(418,198)"/>
  <path d="M0 0 C-0.54089068 3.88121259 -2.10454312 5.279175 -5.0625 7.74609375 C-9.80704327 11.8680002 -14.26941031 16.19066087 -18.6875 20.66015625 C-19.36192139 21.34032806 -20.03634277 22.02049988 -20.73120117 22.72128296 C-23.54304609 25.55987142 -26.35041165 28.40282396 -29.15380859 31.24975586 C-31.22324511 33.34918763 -33.29869249 35.44252288 -35.375 37.53515625 C-36.01139404 38.18500992 -36.64778809 38.83486359 -37.3034668 39.50440979 C-38.83145864 41.04117854 -40.41112248 42.52626818 -42 44 C-42.66 44 -43.32 44 -44 44 C-44 44.99 -44 45.98 -44 47 C-44.66 47 -45.32 47 -46 47 C-46.185625 47.928125 -46.185625 47.928125 -46.375 48.875 C-47 51 -47 51 -49 53 C-49.99 53 -50.98 53 -52 53 C-52.2475 53.5775 -52.495 54.155 -52.75 54.75 C-54.18299988 57.32939979 -55.78424676 59.06121592 -58 61 C-58.66 61 -59.32 61 -60 61 C-60 61.66 -60 62.32 -60 63 C-60.66 63 -61.32 63 -62 63 C-62.2475 63.61875 -62.495 64.2375 -62.75 64.875 C-64.23740369 67.40358627 -65.43678009 67.71839004 -68 69 C-68.70151152 70.3153341 -69.36525925 71.65117592 -70 73 C-72 75.25 -72 75.25 -74 77 C-74.66 77 -75.32 77 -76 77 C-76.21785156 77.52078125 -76.43570313 78.0415625 -76.66015625 78.578125 C-78.53657315 81.96989898 -80.94544192 84.79332092 -83.4375 87.75 C-83.92798828 88.35199219 -84.41847656 88.95398438 -84.92382812 89.57421875 C-86.21395153 91.10983123 -87.60168612 92.5622092 -89 94 C-89.99 94 -90.98 94 -92 94 C-92.33 94.99 -92.66 95.98 -93 97 C-94.70703125 98.7890625 -94.70703125 98.7890625 -96.8125 100.625 C-97.49957031 101.23601562 -98.18664062 101.84703125 -98.89453125 102.4765625 C-101.02561718 104.01853562 -102.47310489 104.45255559 -105 105 C-106.65738525 98.70201197 -107.28614002 92.8645152 -107.24291992 86.36523438 C-107.24481827 85.4486908 -107.24671661 84.53214722 -107.24867249 83.58782959 C-107.25234657 80.58971318 -107.24172965 77.59184447 -107.23046875 74.59375 C-107.22927559 72.50150582 -107.22882408 70.4092611 -107.2290802 68.3170166 C-107.2275215 63.94959116 -107.21927445 59.58224841 -107.20581055 55.21484375 C-107.18873719 49.60455886 -107.18499893 43.99436393 -107.18575573 38.38405609 C-107.18548463 34.07254165 -107.18001447 29.76104705 -107.17275429 25.44953918 C-107.1695645 23.3793808 -107.16759949 21.30922016 -107.16686058 19.23905945 C-107.16470506 16.35920321 -107.15598055 13.47944478 -107.14526367 10.59960938 C-107.14571686 9.73837463 -107.14617004 8.87713989 -107.14663696 7.98980713 C-107.1144822 2.1144822 -107.1144822 2.1144822 -106 1 C-104.37277423 0.8767291 -102.74030047 0.82209929 -101.10864258 0.79467773 C-99.52727257 0.76476746 -99.52727257 0.76476746 -97.91395569 0.73425293 C-96.75254562 0.7175354 -95.59113556 0.70081787 -94.39453125 0.68359375 C-93.18723862 0.66276733 -91.97994598 0.64194092 -90.73606873 0.6204834 C-87.44446999 0.56541692 -84.15287155 0.51511924 -80.86116028 0.46757126 C-78.82070403 0.43762042 -76.78028596 0.40577942 -74.73986816 0.37332153 C-49.82636803 -0.02122733 -24.91640246 -0.12089924 0 0 Z " fill="#5e6ad2" transform="translate(194,197)"/>
  <path d="M0 0 C0.90443848 -0.00137466 1.80887695 -0.00274933 2.74072266 -0.00416565 C3.73046585 -0.00057037 4.72020905 0.0030249 5.73994446 0.00672913 C6.78401459 0.0065831 7.82808472 0.00643707 8.90379333 0.00628662 C12.36132369 0.00698434 15.81880044 0.01477021 19.27632141 0.02259827 C21.67099986 0.02446295 24.0656787 0.02588661 26.46035767 0.02688599 C32.76832632 0.03070723 39.076272 0.0405342 45.38423157 0.05158997 C51.81896148 0.0618125 58.2536951 0.06638542 64.68843079 0.07142639 C77.31799788 0.08215679 89.94754905 0.09903678 102.57710266 0.12025452 C102.24710266 2.10025452 101.91710266 4.08025452 101.57710266 6.12025452 C100.91710266 6.12025452 100.25710266 6.12025452 99.57710266 6.12025452 C99.24710266 7.44025452 98.91710266 8.76025452 98.57710266 10.12025452 C97.95835266 10.18212952 97.33960266 10.24400452 96.70210266 10.30775452 C96.00085266 10.57587952 95.29960266 10.84400452 94.57710266 11.12025452 C94.20585266 12.17212952 94.20585266 12.17212952 93.82710266 13.24525452 C91.36511827 18.90781862 85.09887798 23.52177201 79.57710266 26.12025452 C78.91710266 25.79025452 78.25710266 25.46025452 77.57710266 25.12025452 C79.86066513 22.77886908 82.1552364 20.4485847 84.45210266 18.12025452 C85.10307922 17.45252014 85.75405579 16.78478577 86.42475891 16.09681702 C87.36255188 15.14935608 87.36255188 15.14935608 88.31929016 14.18275452 C88.89533997 13.59623108 89.47138977 13.00970764 90.06489563 12.40541077 C91.57710266 11.12025452 91.57710266 11.12025452 93.57710266 11.12025452 C93.84522766 10.50150452 94.11335266 9.88275452 94.38960266 9.24525452 C95.57710266 7.12025452 95.57710266 7.12025452 98.57710266 5.12025452 C98.90710266 4.13025452 99.23710266 3.14025452 99.57710266 2.12025452 C64.59710266 2.78025452 29.61710266 3.44025452 -6.42289734 4.12025452 C-6.44352234 19.44462952 -6.46414734 34.76900452 -6.48539734 50.55775452 C-6.49450134 55.38327942 -6.50360535 60.20880432 -6.51298523 65.18055725 C-6.51633119 69.53401911 -6.51633119 69.53401911 -6.51834106 73.88748169 C-6.51986921 75.81542187 -6.52337075 77.74336113 -6.5284729 79.67129517 C-6.53584139 82.60408673 -6.53680169 85.53682026 -6.53642273 88.46961975 C-6.54002084 89.31786284 -6.54361895 90.16610594 -6.54732609 91.04005337 C-6.53799105 96.47283267 -6.10478811 101.72932143 -5.42289734 107.12025452 C-0.73058089 104.56080918 5.11847543 101.03750898 7.57710266 96.12025452 C8.23710266 96.12025452 8.89710266 96.12025452 9.57710266 96.12025452 C9.38960266 97.93275452 9.38960266 97.93275452 8.57710266 100.12025452 C6.94527159 101.17614521 5.26917267 102.16386712 3.57710266 103.12025452 C1.75332785 104.71205797 -0.0196665 106.34342883 -1.77445984 108.01087952 C-2.31844421 108.37697327 -2.86242859 108.74306702 -3.42289734 109.12025452 C-4.41289734 108.79025452 -5.40289734 108.46025452 -6.42289734 108.12025452 C-8.63278349 102.55450774 -8.70333535 97.29028915 -8.66581726 91.36122131 C-8.66866478 89.93073204 -8.66866478 89.93073204 -8.67156982 88.47134399 C-8.67525749 85.33730194 -8.66460506 82.20349451 -8.65336609 79.06947327 C-8.65217342 76.88708524 -8.65172131 74.70469669 -8.65197754 72.52230835 C-8.65041634 67.95881415 -8.64215183 63.39539881 -8.62870789 58.83192444 C-8.61166819 52.97281888 -8.60789518 47.11379949 -8.60865307 41.25467205 C-8.60838172 36.75353162 -8.60290701 32.25241015 -8.59565163 27.75127602 C-8.59246338 25.58983821 -8.59049719 23.42839826 -8.58975792 21.26695824 C-8.58759887 18.2553729 -8.57886553 15.24388054 -8.56816101 12.23231506 C-8.5686142 11.33413055 -8.56906738 10.43594604 -8.5695343 9.51054382 C-8.53737901 3.34921786 -8.53737901 3.34921786 -7.42289734 1.12025452 C-4.60634006 0.18140209 -2.91229341 -0.00341418 0 0 Z " fill="#C6CCED" transform="translate(94.42289733886719,194.87974548339844)"/>
  <path d="M0 0 C0.99 1.485 0.99 1.485 2 3 C5.14150189 3.45029472 5.14150189 3.45029472 8.92214966 3.36076355 C9.64256372 3.36332682 10.36297779 3.3658901 11.10522258 3.36853105 C13.53147271 3.37349248 15.9571075 3.35693784 18.38330078 3.34057617 C20.11756373 3.33973041 21.85182776 3.34020405 23.58609009 3.34190369 C28.30492282 3.34276704 33.02352837 3.32508642 37.74230814 3.30418181 C42.66973638 3.28547152 47.5971694 3.28366904 52.52462769 3.28010559 C61.86026048 3.27076848 71.19578831 3.24613221 80.53137481 3.21605712 C91.15756458 3.18256487 101.78375926 3.16604014 112.40998864 3.15097082 C134.27338442 3.11958407 156.13668561 3.06679127 178 3 C178.1875 5.875 178.1875 5.875 178 9 C177.01 9.66 176.02 10.32 175 11 C175.33 9.02 175.66 7.04 176 5 C118.25 5 60.5 5 1 5 C0.67 3.35 0.34 1.7 0 0 Z " fill="#7C84D1" transform="translate(227,341)"/>
  <path d="M0 0 C0.66 0.33 1.32 0.66 2 1 C1.67 1.66 1.34 2.32 1 3 C1 24.45 1 45.9 1 68 C63.7 68 126.4 68 191 68 C191 68.33 191 68.66 191 69 C166.13124331 69.0466634 141.26249316 69.08196102 116.39370155 69.10362434 C104.84741378 69.11394911 93.30115316 69.12803229 81.75488281 69.15087891 C71.69441217 69.17077612 61.63396119 69.1837077 51.57347143 69.18817699 C46.24358333 69.19079061 40.91375149 69.1969585 35.58388138 69.21146011 C30.57219688 69.22498614 25.56059208 69.22923278 20.54889107 69.22621536 C18.70496119 69.22676777 16.86102878 69.23077474 15.01711464 69.23841095 C12.50851283 69.24829442 10.00021586 69.24599325 7.49160767 69.24050903 C6.3855895 69.24924756 6.3855895 69.24924756 5.25722754 69.25816262 C0.22824242 69.22824242 0.22824242 69.22824242 -2 67 C-2.24050903 64.25387573 -2.24050903 64.25387573 -2.22705078 60.71435547 C-2.22734283 60.07032776 -2.22763489 59.42630005 -2.22793579 58.76275635 C-2.22654074 56.63076373 -2.21097174 54.49911918 -2.1953125 52.3671875 C-2.19158298 50.89031159 -2.18873572 49.41343322 -2.18673706 47.93655396 C-2.17909574 44.04682602 -2.15944308 40.15724712 -2.1373291 36.26757812 C-2.11688135 32.29949968 -2.10773764 28.33139718 -2.09765625 24.36328125 C-2.07619756 16.57545284 -2.04205572 8.78774729 -2 1 C-1.34 0.67 -0.68 0.34 0 0 Z " fill="#9CA1DA" transform="translate(88,92)"/>
  <path d="M0 0 C0.66 0.33 1.32 0.66 2 1 C-0.38308202 6.88761439 -4.30545303 11.15272652 -10 14 C-10.33 14.99 -10.66 15.98 -11 17 C-10.09901864 16.99907821 -9.19803728 16.99815641 -8.26975346 16.99720669 C13.620058 16.97515375 35.50986755 16.95858957 57.39968777 16.94818783 C67.98529394 16.94302435 78.57089272 16.93598067 89.15649414 16.92456055 C98.37937759 16.91461529 107.60225569 16.90814695 116.82514435 16.90591151 C121.71176412 16.90460413 126.59836857 16.90151658 131.48498344 16.89426994 C136.07887461 16.88751222 140.67274405 16.88538253 145.26663971 16.88689232 C146.95779348 16.88661588 148.64894794 16.88460929 150.34009743 16.88079453 C152.63878176 16.87586113 154.9373827 16.87700038 157.23606873 16.87974548 C159.1704513 16.87836279 159.1704513 16.87836279 161.14391232 16.87695217 C164 17 164 17 165 18 C165.61071908 20.93145157 165.83747039 22.19292331 165 25 C162.28747639 28.32996576 159.22826951 31.17526418 156 34 C156 30.36672806 156.95586411 28.95264073 159 26 C159.99 25.34 160.98 24.68 162 24 C162.33 22.02 162.66 20.04 163 18 C75.88 18.495 75.88 18.495 -13 19 C-13.33 17.68 -13.66 16.36 -14 15 C-12.8125 13.10546875 -12.8125 13.10546875 -11 11.1875 C-10.35933594 10.50042969 -9.71867188 9.81335938 -9.05859375 9.10546875 C-8.37925781 8.41066406 -7.69992188 7.71585937 -7 7 C-6.33097656 6.31550781 -5.66195312 5.63101562 -4.97265625 4.92578125 C-3.32907867 3.26875927 -1.67300261 1.62723658 0 0 Z " fill="#D9DEF4" transform="translate(242,326)"/>
  <path d="M0 0 C1.98 0 3.96 0 6 0 C6.02346682 9.23390022 6.041086 18.46778972 6.05181217 27.70171356 C6.05696758 31.99223403 6.06392646 36.28273369 6.07543945 40.57324219 C6.12557137 59.74415342 6.06420522 78.85150464 5 98 C4.67 98 4.34 98 4 98 C4 66.98 4 35.96 4 4 C2.35 4 0.7 4 -1 4 C-1.061875 4.598125 -1.12375 5.19625 -1.1875 5.8125 C-2.3236757 8.87143458 -4.17330142 9.55041099 -7 11 C-7 10.34 -7 9.68 -7 9 C-6.1028125 8.38125 -6.1028125 8.38125 -5.1875 7.75 C-2.42941013 5.54352811 -1.41933573 3.19350539 0 0 Z " fill="#A4ABDF" transform="translate(418,198)"/>
  <path d="M0 0 C0 3.54404336 -0.60989485 4.10267905 -2.875 6.6875 C-3.40867187 7.31011719 -3.94234375 7.93273437 -4.4921875 8.57421875 C-6 10 -6 10 -8 10 C-8.33 10.99 -8.66 11.98 -9 13 C-9.66 13 -10.32 13 -11 13 C-11 13.99 -11 14.98 -11 16 C20.68 16 52.36 16 85 16 C85 15.34 85 14.68 85 14 C86.32 14 87.64 14 89 14 C89.66 10.7 90.32 7.4 91 4 C91.33 4 91.66 4 92 4 C92.05447047 5.41623216 92.09300508 6.83308191 92.125 8.25 C92.14820313 9.03890625 92.17140625 9.8278125 92.1953125 10.640625 C92 13 92 13 90 17 C55.35 17 20.7 17 -15 17 C-15 13 -15 13 -13.125 10.75 C-8.97514762 6.91289012 -4.44801453 3.48067933 0 0 Z " fill="#8289D1" transform="translate(329,292)"/>
  <path d="M0 0 C1.32 0 2.64 0 4 0 C4 0.66 4 1.32 4 2 C4.61488281 1.98839844 5.22976563 1.97679688 5.86328125 1.96484375 C6.67152344 1.95582031 7.47976563 1.94679688 8.3125 1.9375 C9.51326172 1.92009766 9.51326172 1.92009766 10.73828125 1.90234375 C13 2 13 2 16 3 C16 3.66 16 4.32 16 5 C16.804375 5.144375 17.60875 5.28875 18.4375 5.4375 C21 6 21 6 22 7 C22.10382589 8.61580008 22.13852243 10.23610624 22.14526367 11.85522461 C22.15164352 12.8897728 22.15802338 13.92432098 22.16459656 14.99021912 C22.16570938 16.11622025 22.1668222 17.24222137 22.16796875 18.40234375 C22.17129715 19.55037979 22.17462555 20.69841583 22.17805481 21.88124084 C22.18312901 24.31494749 22.18546298 26.74866112 22.18530273 29.18237305 C22.18748854 32.91792192 22.20563746 36.65317535 22.22460938 40.38867188 C22.22754325 42.74739482 22.22952808 45.10611917 22.23046875 47.46484375 C22.23765427 48.58882065 22.24483978 49.71279755 22.25224304 50.87083435 C22.24916641 51.9085347 22.24608978 52.94623505 22.24291992 54.01538086 C22.24434494 54.93169785 22.24576996 55.84801483 22.24723816 56.792099 C22 59 22 59 20 61 C19.97573944 60.0140107 19.97573944 60.0140107 19.95098877 59.00810242 C19.77912245 52.17818643 19.58013107 45.34944672 19.36523438 38.52075195 C19.28857895 35.9708224 19.21888639 33.42067376 19.15625 30.87036133 C19.06510913 27.20834956 18.94910321 23.54785099 18.828125 19.88671875 C18.80502258 18.7428923 18.78192017 17.59906586 18.75811768 16.420578 C18.7183783 15.35970474 18.67863892 14.29883148 18.63769531 13.20581055 C18.61104797 12.27093307 18.58440063 11.3360556 18.5569458 10.37284851 C18.19533006 7.86066335 18.19533006 7.86066335 16.12835693 6.21369934 C12.77685216 4.30249776 9.33660457 4.11711538 5.55859375 3.625 C2.77847417 2.94588682 1.77053303 2.19379177 0 0 Z " fill="#8D93D7" transform="translate(402,86)"/>
  <path d="M0 0 C51.15 0 102.3 0 155 0 C155 1.98 155 3.96 155 6 C154.01 6.66 153.02 7.32 152 8 C152 6.02 152 4.04 152 2 C76.76 1.505 76.76 1.505 0 1 C0 0.67 0 0.34 0 0 Z " fill="#A4AAE1" transform="translate(250,344)"/>
  <path d="M0 0 C0.66 0.33 1.32 0.66 2 1 C1.566875 1.391875 1.13375 1.78375 0.6875 2.1875 C-1.11257267 3.9621411 -1.11257267 3.9621411 -2.25 6.375 C-3.94378843 8.91568265 -5.03105124 9.85057625 -7.5 11.5 C-10.70932591 13.6462367 -12.04096047 15.65330748 -14 19 C-15.11798024 20.01085191 -16.26734995 20.98752618 -17.4375 21.9375 C-19.84043881 23.89990003 -21.19223778 25.29145728 -22.9375 27.9375 C-26.21496839 32.80404398 -30.58803851 36.56430864 -35.625 39.5625 C-38.95759539 41.57959721 -41.31129014 44.18623387 -44 47 C-44.66 46.67 -45.32 46.34 -46 46 C-44.10730953 44.08014172 -42.21100983 42.16408963 -40.3125 40.25 C-39.78205078 39.71117187 -39.25160156 39.17234375 -38.70507812 38.6171875 C-35.61616303 35.50932201 -32.43812319 32.7255588 -29 30 C-27.31267723 28.01739574 -25.64633943 26.0167658 -24 24 C-22.34362564 22.32310419 -20.67484504 20.65844796 -19 19 C-17.83847396 17.81775047 -16.67840631 16.63406696 -15.51953125 15.44921875 C-14.28393164 14.19523615 -13.04825327 12.94133117 -11.8125 11.6875 C-10.86987305 10.71973633 -10.86987305 10.71973633 -9.90820312 9.73242188 C-9.30556641 9.12333984 -8.70292969 8.51425781 -8.08203125 7.88671875 C-7.53780518 7.33201904 -6.9935791 6.77731934 -6.43286133 6.20581055 C-5 5 -5 5 -3 5 C-2.690625 4.360625 -2.38125 3.72125 -2.0625 3.0625 C-1 1 -1 1 0 0 Z " fill="#CACFEF" transform="translate(367,201)"/>
  <path d="M0 0 C-0.375 1.9375 -0.375 1.9375 -1 4 C-1.66 4.33 -2.32 4.66 -3 5 C-3 3.68 -3 2.36 -3 1 C-3.76889557 1.07105453 -4.53779114 1.14210907 -5.32998657 1.21531677 C-16.17528982 2.11243381 -26.96082041 2.12821492 -37.8359375 2.09765625 C-39.81132979 2.09578683 -41.78672255 2.09436541 -43.76211548 2.09336853 C-48.91419802 2.08958457 -54.06625153 2.0797904 -59.21832275 2.06866455 C-64.49450284 2.05836091 -69.77068771 2.05385189 -75.046875 2.04882812 C-85.36459596 2.03816366 -95.68229555 2.02113793 -106 2 C-106 1.67 -106 1.34 -106 1 C-96.95847215 0.82560955 -87.91680297 0.65944768 -78.875 0.5 C-78.20174179 0.48812275 -77.52848358 0.4762455 -76.83482361 0.46400833 C-51.22197916 0.01509627 -25.6168102 -0.12429775 0 0 Z " fill="#7178CC" transform="translate(194,197)"/>
  <path d="M0 0 C0.99 0.495 0.99 0.495 2 1 C1.99777939 2.15765366 1.99555878 3.31530731 1.99327087 4.50804138 C1.97296367 15.43933224 1.95799139 26.37061924 1.94818783 37.30192471 C1.94297824 42.92126186 1.93591562 48.54058374 1.92456055 54.15991211 C1.91366319 59.58694165 1.90770867 65.01395653 1.90512276 70.44099617 C1.90328083 72.50733737 1.89968407 74.57367781 1.89426994 76.64001274 C1.88696856 79.54314762 1.88601288 82.44622259 1.88647461 85.34936523 C1.88287933 86.19597717 1.87928406 87.04258911 1.87557983 87.91485596 C1.88487968 93.34933984 2.31789444 98.60736884 3 104 C7.69231645 101.44055466 13.54137277 97.91725446 16 93 C16.66 93 17.32 93 18 93 C17.8125 94.8125 17.8125 94.8125 17 97 C15.36816893 98.05589069 13.69207001 99.0436126 12 100 C10.17622519 101.59180345 8.40323084 103.22317432 6.6484375 104.890625 C6.10445313 105.25671875 5.56046875 105.6228125 5 106 C4.01 105.67 3.02 105.34 2 105 C-0.21785083 99.42266501 -0.27499112 94.15101091 -0.22705078 88.20922852 C-0.22734283 87.25235641 -0.22763489 86.29548431 -0.22793579 85.30961609 C-0.22654921 82.16595195 -0.21101962 79.02252868 -0.1953125 75.87890625 C-0.19157998 73.691728 -0.18873414 71.50454808 -0.18673706 69.31736755 C-0.17911941 63.57495466 -0.15948694 57.83264374 -0.1373291 52.090271 C-0.11683042 46.22490824 -0.10772675 40.35952892 -0.09765625 34.49414062 C-0.0762393 22.99604907 -0.04212591 11.49803303 0 0 Z " fill="#A5ABE4" transform="translate(86,198)"/>
  <path d="M0 0 C0.66 0.33 1.32 0.66 2 1 C-0.04178313 5.62087761 -2.3131848 8.57040446 -6 12 C-7.06370571 13.10300518 -8.1261925 14.20718707 -9.1875 15.3125 C-12 18 -12 18 -14 18 C-14.309375 18.8353125 -14.309375 18.8353125 -14.625 19.6875 C-16.51040088 22.85840149 -19.15359359 24.68729479 -22 27 C-22.66 27.99 -23.32 28.98 -24 30 C-24.99 30.33 -25.98 30.66 -27 31 C-27.309375 31.804375 -27.61875 32.60875 -27.9375 33.4375 C-29.19771932 36.47685248 -30.06823893 36.77055181 -33 38 C-33.33 38.66 -33.66 39.32 -34 40 C-34.66 39.67 -35.32 39.34 -36 39 C-34.60770997 37.26797907 -33.21099444 35.53951516 -31.8125 33.8125 C-31.03519531 32.84957031 -30.25789063 31.88664062 -29.45703125 30.89453125 C-27.09300715 28.10956804 -24.59636036 25.56661482 -22 23 C-20.98445019 21.82577053 -19.98201744 20.6399134 -19 19.4375 C-16.57976498 16.56073486 -13.9823527 14.30067209 -11 12 C-10.67 11.34 -10.34 10.68 -10 10 C-9.34 10 -8.68 10 -8 10 C-8 9.34 -8 8.68 -8 8 C-6.50390625 6.5625 -6.50390625 6.5625 -4.5625 5 C-1.84811762 2.85474956 -1.84811762 2.85474956 0 0 Z " fill="#CBD1F1" transform="translate(142,250)"/>
  <path d="M0 0 C0.66 0.33 1.32 0.66 2 1 C1.67 1.66 1.34 2.32 1 3 C0.90847328 5.03230896 0.88248566 7.06768578 0.88647461 9.10205078 C0.88655014 10.38322784 0.88662567 11.66440491 0.88670349 12.98440552 C0.89181052 14.38804157 0.89702652 15.79167723 0.90234375 17.1953125 C0.90420854 18.62734935 0.90563216 20.05938684 0.90663147 21.49142456 C0.91045181 25.26273354 0.92027798 29.03400407 0.93133545 32.80529785 C0.94155995 36.65274536 0.94613132 40.50019907 0.95117188 44.34765625 C0.96190067 51.89845503 0.97897131 59.44922213 1 67 C0.01 67 -0.98 67 -2 67 C-2 45.22 -2 23.44 -2 1 C-1.34 0.67 -0.68 0.34 0 0 Z " fill="#8891D6" transform="translate(88,92)"/>
  <path d="M0 0 C0.495 0.99 0.495 0.99 1 2 C0.67 2.66 0.34 3.32 0 4 C-0.66 4 -1.32 4 -2 4 C-2.12375 4.61875 -2.2475 5.2375 -2.375 5.875 C-3 8 -3 8 -5 10 C-5.99 10 -6.98 10 -8 10 C-8.07492676 10.56170898 -8.14985352 11.12341797 -8.22705078 11.70214844 C-9.28034848 14.83343016 -11.0409531 16.42971524 -13.3671875 18.765625 C-14.69556641 20.09980469 -14.69556641 20.09980469 -16.05078125 21.4609375 C-17.44876953 22.84152344 -17.44876953 22.84152344 -18.875 24.25 C-20.26138672 25.65378906 -20.26138672 25.65378906 -21.67578125 27.0859375 C-22.56394531 27.97023438 -23.45210937 28.85453125 -24.3671875 29.765625 C-25.59091064 30.98427246 -25.59091064 30.98427246 -26.83935547 32.22753906 C-29 34 -29 34 -32 34 C-32 34.66 -32 35.32 -32 36 C-32.66 36 -33.32 36 -34 36 C-32.69712452 33.08626104 -31.36880433 31.16433891 -28.98828125 29.046875 C-28.39869629 28.51416992 -27.80911133 27.98146484 -27.20166016 27.43261719 C-26.5782373 26.87735352 -25.95481445 26.32208984 -25.3125 25.75 C-20.17793618 21.08221471 -15.43130588 16.34812778 -11 11 C-9.59049948 9.3687803 -8.17361692 7.74391455 -6.75 6.125 C-6.10546875 5.38507813 -5.4609375 4.64515625 -4.796875 3.8828125 C-3 2 -3 2 0 0 Z " fill="#7178CE" transform="translate(148,296)"/>
  <path d="M0 0 C-6.13321292 4.08880861 -12.71671318 6.22518225 -20 7 C-20.33 7.33 -20.66 7.66 -21 8 C-23.30362261 8.52017285 -25.61858736 8.99039696 -27.9375 9.4375 C-29.30208578 9.70311241 -30.66666911 9.96873745 -32.03125 10.234375 C-33.04058594 10.42870117 -33.04058594 10.42870117 -34.0703125 10.62695312 C-36.6952796 11.13441134 -39.31644037 11.66027536 -41.9375 12.1875 C-43.29166667 12.45833333 -44.64583333 12.72916667 -46 13 C-46 13.66 -46 14.32 -46 15 C-49.21451269 16.60725635 -52.43612536 16.05748185 -56 16 C-55.34 15.34 -54.68 14.68 -54 14 C-52.68 14 -51.36 14 -50 14 C-50 13.34 -50 12.68 -50 12 C-49.40050537 11.86424561 -48.80101074 11.72849121 -48.18334961 11.58862305 C-45.43312399 10.96175094 -42.6853483 10.32470868 -39.9375 9.6875 C-38.99455078 9.47416016 -38.05160156 9.26082031 -37.08007812 9.04101562 C-32.99906566 8.0883054 -29.0707115 7.15183733 -25.23828125 5.43359375 C-21.91417867 3.96200672 -18.79912873 3.13314722 -15.25 2.375 C-3.87107259 -0.08602384 -3.87107259 -0.08602384 0 0 Z " fill="#939AD9" transform="translate(218,55)"/>
  <path d="M0 0 C0.73828125 1.703125 0.73828125 1.703125 1 4 C-0.58203125 6.359375 -0.58203125 6.359375 -2.8125 8.75 C-3.54082031 9.54921875 -4.26914062 10.3484375 -5.01953125 11.171875 C-7 13 -7 13 -9 13 C-9.2475 13.639375 -9.495 14.27875 -9.75 14.9375 C-10.1625 15.618125 -10.575 16.29875 -11 17 C-11.61875 17.144375 -12.2375 17.28875 -12.875 17.4375 C-16.04319805 18.27614066 -16.99076791 20.43264789 -19 23 C-21.5989124 25.41398979 -24.28724555 27.71522866 -27 30 C-27 27 -27 27 -25.27734375 25.23828125 C-24.50519531 24.60277344 -23.73304688 23.96726562 -22.9375 23.3125 C-19.11014146 20.04392379 -15.80111899 16.64175067 -12.55078125 12.80859375 C-10.49105862 10.40644872 -8.26558514 8.20749321 -6 6 C-4.89451807 4.89715017 -3.79037751 3.79295432 -2.6875 2.6875 C-1.800625 1.800625 -0.91375 0.91375 0 0 Z " fill="#C0C5EB" transform="translate(320,248)"/>
  <path d="M0 0 C-1.03640625 0.39832031 -2.0728125 0.79664062 -3.140625 1.20703125 C-4.5105436 1.74186248 -5.88032828 2.27703684 -7.25 2.8125 C-7.93191406 3.07353516 -8.61382812 3.33457031 -9.31640625 3.60351562 C-12.27293053 4.76603246 -14.70680883 5.77383858 -17.23828125 7.7265625 C-19 9 -19 9 -22.9375 8.5625 C-23.63746094 8.44132812 -24.33742188 8.32015625 -25.05859375 8.1953125 C-27.7536571 7.92417937 -29.53340894 8.9516988 -32 10 C-34.69218483 10.17678512 -37.29764701 10.09160519 -40 10 C-40 9.67 -40 9.34 -40 9 C-39.11248047 8.81824219 -39.11248047 8.81824219 -38.20703125 8.6328125 C-33.93459996 7.7267504 -30.04594825 6.6598762 -26 5 C-24.03913332 4.51781967 -22.07800714 4.03651864 -20.11328125 3.5703125 C-17.96297991 2.99000937 -15.94639972 2.25338593 -13.875 1.4375 C-9.03801131 -0.43090544 -5.06860958 -1.42960783 0 0 Z " fill="#828BD3" transform="translate(150,76)"/>
  <path d="M0 0 C0 3.6635921 -0.70387217 4.22881124 -3 7 C-3.40992188 7.52464844 -3.81984375 8.04929688 -4.2421875 8.58984375 C-5.44434301 10.10142982 -6.71892833 11.55468837 -8 13 C-8.66 13 -9.32 13 -10 13 C-10 13.66 -10 14.32 -10 15 C-10.99 15 -11.98 15 -13 15 C-13.226875 15.721875 -13.45375 16.44375 -13.6875 17.1875 C-15.26335128 20.56432417 -17.20876616 22.55767039 -20 25 C-20.66 25 -21.32 25 -22 25 C-22 25.66 -22 26.32 -22 27 C-23.32 26.67 -24.64 26.34 -26 26 C-17.33333333 17.33333333 -8.66666667 8.66666667 0 0 Z " fill="#878ED4" transform="translate(391,229)"/>
  <path d="M0 0 C0.66 0.33 1.32 0.66 2 1 C-0.16785889 6.35588668 -3.22103856 9.84485772 -8 13 C-10.22265625 13.66796875 -10.22265625 13.66796875 -12 14 C-12 15.32 -12 16.64 -12 18 C-5.4 18 1.2 18 8 18 C8 18.33 8 18.66 8 19 C1.07 19 -5.86 19 -13 19 C-13.33 17.68 -13.66 16.36 -14 15 C-12.8125 13.10546875 -12.8125 13.10546875 -11 11.1875 C-10.35933594 10.50042969 -9.71867188 9.81335938 -9.05859375 9.10546875 C-8.37925781 8.41066406 -7.69992188 7.71585937 -7 7 C-6.33097656 6.31550781 -5.66195312 5.63101562 -4.97265625 4.92578125 C-3.32907867 3.26875927 -1.67300261 1.62723658 0 0 Z " fill="#C3C8EC" transform="translate(242,326)"/>
  <path d="M0 0 C0.33 0.99 0.66 1.98 1 3 C0.236875 3.556875 -0.52625 4.11375 -1.3125 4.6875 C-4.09573526 6.82709176 -4.09573526 6.82709176 -5.5625 9.6875 C-7 12 -7 12 -9.1875 12.8125 C-9.785625 12.874375 -10.38375 12.93625 -11 13 C-11.09796875 13.58394531 -11.1959375 14.16789062 -11.296875 14.76953125 C-12.56552818 18.79398106 -15.76809781 21.41447825 -19 24 C-21.9375 24.9375 -21.9375 24.9375 -24 25 C-19.18132753 19.19108254 -13.98743592 13.86934448 -8.625 8.5625 C-7.79355469 7.73556641 -6.96210938 6.90863281 -6.10546875 6.05664062 C-4.0725896 4.03544469 -2.03740037 2.01663665 0 0 Z " fill="#7E85D1" transform="translate(183,261)"/>
  <path d="M0 0 C0 4.0333534 -1.60879918 5.83517538 -4 9 C-4.66 9 -5.32 9 -6 9 C-6 9.66 -6 10.32 -6 11 C-9.07335571 14.3367862 -12.33446661 17.32515131 -16 20 C-16.66 20 -17.32 20 -18 20 C-18.33 20.99 -18.66 21.98 -19 23 C-21.0625 23.6875 -21.0625 23.6875 -23 24 C-21.625 21.5 -21.625 21.5 -20 19 C-19.34 19 -18.68 19 -18 19 C-17.773125 18.443125 -17.54625 17.88625 -17.3125 17.3125 C-15.00997041 13.25566215 -11.89182874 10.57597273 -8 8.0625 C-4.55512393 5.6941477 -2.54321629 3.29122108 0 0 Z " fill="#BCC2EB" transform="translate(420,149)"/>
  <path d="M0 0 C0.33 0.66 0.66 1.32 1 2 C-0.2065625 3.11375 -0.2065625 3.11375 -1.4375 4.25 C-3.76988591 6.75304829 -4.63534394 7.7180955 -5 11 C-5.66 11 -6.32 11 -7 11 C-7.103125 11.639375 -7.20625 12.27875 -7.3125 12.9375 C-7.539375 13.618125 -7.76625 14.29875 -8 15 C-8.99 15.33 -9.98 15.66 -11 16 C-11 16.66 -11 17.32 -11 18 C-12.65 18.66 -14.3 19.32 -16 20 C-16 20.66 -16 21.32 -16 22 C-17.65 22.33 -19.3 22.66 -21 23 C-21 21 -21 21 -18.625 18.375 C-16 16 -16 16 -14 16 C-13.67 15.01 -13.34 14.02 -13 13 C-12.34 13 -11.68 13 -11 13 C-10.67 12.01 -10.34 11.02 -10 10 C-8.22265625 8.28125 -8.22265625 8.28125 -6.0625 6.5 C-3.49024808 4.37123979 -1.87739237 2.81608855 0 0 Z " fill="#C9CFF0" transform="translate(287,281)"/>
  <path d="M0 0 C0 5.12953355 -2.94440948 8.08229868 -6.375 11.625 C-8.42561303 13.62822491 -10.14782953 15.08799377 -12.625 16.5625 C-14.92847018 17.95670563 -15.9807795 19.05504383 -17.625 21.125 C-20 24 -20 24 -23 25 C-23 24.34 -23 23.68 -23 23 C-22.34 23 -21.68 23 -21 23 C-21 22.01 -21 21.02 -21 20 C-19.70703125 18.6328125 -19.70703125 18.6328125 -17.8125 17.125 C-13.64465683 13.64804255 -9.8189141 9.91218236 -6 6.0625 C-5.4119458 5.47033691 -4.8238916 4.87817383 -4.21801758 4.26806641 C-2.80999293 2.84737556 -1.40470318 1.42397503 0 0 Z " fill="#BFC4EB" transform="translate(171,221)"/>
  <path d="M0 0 C0.66 0.33 1.32 0.66 2 1 C0.625 3 0.625 3 -1 5 C-1.66 5 -2.32 5 -3 5 C-3.268125 5.763125 -3.53625 6.52625 -3.8125 7.3125 C-5.00439913 10.00995593 -5.88254149 11.03939027 -8 13 C-8.7425 13.99 -9.485 14.98 -10.25 16 C-13.02790901 19.4150441 -15.89245527 20.55027833 -20 22 C-18.5056292 18.35798155 -16.42332178 16.3959346 -13.4375 13.875 C-10.2525427 11.30529501 -10.2525427 11.30529501 -8 8 C-7.34 8 -6.68 8 -6 8 C-6 7.01 -6 6.02 -6 5 C-4.36368108 3.95107762 -2.69514137 2.95093297 -1 2 C-0.67 1.34 -0.34 0.68 0 0 Z " fill="#C8CDF0" transform="translate(390,178)"/>
  <path d="M0 0 C0.66 0 1.32 0 2 0 C2 0.99 2 1.98 2 3 C1.34 3 0.68 3 0 3 C0 3.99 0 4.98 0 6 C-2.3125 8.6875 -2.3125 8.6875 -5 11 C-5.99 11 -6.98 11 -8 11 C-8.268125 11.763125 -8.53625 12.52625 -8.8125 13.3125 C-9.99827525 15.99609663 -10.6814786 17.26110895 -13 19 C-16.1875 20.1875 -16.1875 20.1875 -19 21 C-17.10019993 17.48536988 -15.43364683 15.10449322 -12 13 C-11.34 13 -10.68 13 -10 13 C-9.74347656 12.41476562 -9.48695313 11.82953125 -9.22265625 11.2265625 C-7.89437838 8.80765392 -6.43475199 7.26801128 -4.4375 5.375 C-1.85984611 2.95478041 -1.85984611 2.95478041 0 0 Z " fill="#888FD4" transform="translate(354,265)"/>
  <path d="M0 0 C0.66 0.33 1.32 0.66 2 1 C-3.03746851 7.89337796 -6.61613005 11.99345384 -14.75 14.625 C-15.54921875 14.88539063 -16.3484375 15.14578125 -17.171875 15.4140625 C-17.77515625 15.60742188 -18.3784375 15.80078125 -19 16 C-17.16505987 11.75615743 -15.17160266 10.96310713 -11 9 C-9.2925002 7.71937515 -7.62626404 6.38232443 -6 5 C-4.89646556 4.08257232 -3.79229021 3.16591507 -2.6875 2.25 C-1.3571875 1.13625 -1.3571875 1.13625 0 0 Z " fill="#C7CCEC" transform="translate(348,408)"/>
  <path d="M0 0 C0.33 0.66 0.66 1.32 1 2 C0.236875 2.7425 -0.52625 3.485 -1.3125 4.25 C-3.96631838 6.80166029 -3.96631838 6.80166029 -5.5625 9.3125 C-6.2740625 10.1478125 -6.2740625 10.1478125 -7 11 C-8.32 11 -9.64 11 -11 11 C-11.66 11.825 -12.32 12.65 -13 13.5 C-13.66 14.325 -14.32 15.15 -15 16 C-16.32 16 -17.64 16 -19 16 C-19 15.34 -19 14.68 -19 14 C-17.31886306 12.6662784 -15.57804522 11.40728884 -13.8125 10.1875 C-9.15762767 6.91651401 -9.15762767 6.91651401 -5 3.0625 C-3 1 -3 1 0 0 Z " fill="#CFD4EF" transform="translate(369,392)"/>
  <path d="M0 0 C0.66 0.33 1.32 0.66 2 1 C-3.01412385 8.63986327 -7.64289274 14.82144637 -16 19 C-16.66 18.67 -17.32 18.34 -18 18 C-15.71643754 15.65861457 -13.42186626 13.32833018 -11.125 11 C-10.47402344 10.33226562 -9.82304687 9.66453125 -9.15234375 8.9765625 C-8.52714844 8.34492188 -7.90195313 7.71328125 -7.2578125 7.0625 C-6.6817627 6.47597656 -6.10571289 5.88945312 -5.51220703 5.28515625 C-4 4 -4 4 -2 4 C-1.34 2.68 -0.68 1.36 0 0 Z " fill="#D7DCF5" transform="translate(190,202)"/>
  <path d="M0 0 C5 2 10 4 15 6 C15 6.66 15 7.32 15 8 C15.61488281 7.7834375 16.22976562 7.566875 16.86328125 7.34375 C17.67152344 7.0653125 18.47976562 6.786875 19.3125 6.5 C20.51326172 6.08234375 20.51326172 6.08234375 21.73828125 5.65625 C24 5 24 5 27 5 C25.6875 6.5 25.6875 6.5 24 8 C23.01 8 22.02 8 21 8 C21 8.66 21 9.32 21 10 C15.32723489 10.29341888 12.00932754 10.00559652 7 7 C7 6.34 7 5.68 7 5 C6.21625 4.9175 5.4325 4.835 4.625 4.75 C2 4 2 4 0.6875 1.9375 C0.460625 1.298125 0.23375 0.65875 0 0 Z " fill="#B4BBE6" transform="translate(237,458)"/>
  <path d="M0 0 C1.98 0 3.96 0 6 0 C6 0.66 6 1.32 6 2 C6.94359375 2.07347656 6.94359375 2.07347656 7.90625 2.1484375 C13.46913314 2.63435199 18.61993052 3.50553626 24 5 C24 5.66 24 6.32 24 7 C25.32 7.33 26.64 7.66 28 8 C21.96872943 8.44676078 18.05059325 7.4386509 12.5390625 5.015625 C9.31952767 3.72781107 6.12259804 3.07911179 2.71484375 2.4921875 C2.14894531 2.32976562 1.58304687 2.16734375 1 2 C0.67 1.34 0.34 0.68 0 0 Z " fill="#939BD9" transform="translate(348,71)"/>
  <path d="M0 0 C0 0.99 0 1.98 0 3 C-0.99 3.33 -1.98 3.66 -3 4 C-3.144375 4.5775 -3.28875 5.155 -3.4375 5.75 C-4.43239453 9.72957813 -6.87737543 12.30215229 -10.3125 14.4375 C-11.199375 14.953125 -12.08625 15.46875 -13 16 C-15.39245347 17.93389989 -17.70276682 19.95433702 -20 22 C-20 19 -20 19 -18.42578125 17.38671875 C-17.72839844 16.82597656 -17.03101563 16.26523437 -16.3125 15.6875 C-13.6337981 13.4591993 -11.28414603 11.29871509 -9.125 8.5625 C-8.42375 7.716875 -7.7225 6.87125 -7 6 C-6.34 6 -5.68 6 -5 6 C-4.67 5.01 -4.34 4.02 -4 3 C-1.9375 1.3125 -1.9375 1.3125 0 0 Z " fill="#B7BDE9" transform="translate(265,304)"/>
  <path d="M0 0 C0.66 0.33 1.32 0.66 2 1 C1.3503125 1.5878125 1.3503125 1.5878125 0.6875 2.1875 C-1.10669113 3.94994113 -1.10669113 3.94994113 -2.1875 6.3125 C-4.32925447 9.48820491 -6.7005615 11.11120604 -9.79296875 13.30859375 C-13.53975744 16.1800265 -16.7468065 19.59106851 -20 23 C-20 20 -20 20 -18.65478516 18.2824707 C-18.03909668 17.66976318 -17.4234082 17.05705566 -16.7890625 16.42578125 C-16.12132812 15.75869141 -15.45359375 15.09160156 -14.765625 14.40429688 C-14.05921875 13.71400391 -13.3528125 13.02371094 -12.625 12.3125 C-11.57699219 11.2596582 -11.57699219 11.2596582 -10.5078125 10.18554688 C-5.26683218 5 -5.26683218 5 -3 5 C-2.690625 4.360625 -2.38125 3.72125 -2.0625 3.0625 C-1 1 -1 1 0 0 Z " fill="#B4B9E6" transform="translate(367,201)"/>
  <path d="M0 0 C15.18 0 30.36 0 46 0 C45.67 1.32 45.34 2.64 45 4 C44.34 4.33 43.68 4.66 43 5 C43 3.68 43 2.36 43 1 C28.81 1 14.62 1 0 1 C0 0.67 0 0.34 0 0 Z " fill="#8B93D6" transform="translate(148,197)"/>
  <path d="M0 0 C2.0625 0.4375 2.0625 0.4375 4 1 C-2.75762784 4.22523147 -10.45267745 7 -18 7 C-18 7.66 -18 8.32 -18 9 C-21.21451269 10.60725635 -24.43612536 10.05748185 -28 10 C-27.34 9.34 -26.68 8.68 -26 8 C-24.68 8 -23.36 8 -22 8 C-22 7.34 -22 6.68 -22 6 C-21.36908447 5.85377197 -20.73816895 5.70754395 -20.08813477 5.55688477 C-17.24537383 4.89582026 -14.40393575 4.22923638 -11.5625 3.5625 C-10.07266602 3.21735352 -10.07266602 3.21735352 -8.55273438 2.86523438 C-7.60849609 2.64287109 -6.66425781 2.42050781 -5.69140625 2.19140625 C-4.81685791 1.98717041 -3.94230957 1.78293457 -3.04125977 1.57250977 C-1.02290227 1.18619638 -1.02290227 1.18619638 0 0 Z " fill="#ADB2E3" transform="translate(190,61)"/>
  <path d="M0 0 C0.66 0.33 1.32 0.66 2 1 C1.38125 1.2475 0.7625 1.495 0.125 1.75 C-2.13404836 2.79857766 -2.13404836 2.79857766 -2.828125 4.90234375 C-4.38238468 7.68446858 -6.03752845 8.41902361 -8.875 9.8125 C-9.73867188 10.25207031 -10.60234375 10.69164062 -11.4921875 11.14453125 C-14.20723697 12.07069298 -15.36059742 12.00051772 -18 11 C-13.2312251 7.37158432 -8.44724497 4.59717433 -3.0390625 2.015625 C-1.05748458 1.16337872 -1.05748458 1.16337872 0 0 Z " fill="#BEC3E9" transform="translate(284,450)"/>
  <path d="M0 0 C0.33 0 0.66 0 1 0 C1.05447047 1.41623216 1.09300508 2.83308191 1.125 4.25 C1.14820313 5.03890625 1.17140625 5.8278125 1.1953125 6.640625 C1 9 1 9 -1 13 C-8.59 13 -16.18 13 -24 13 C-24 12.67 -24 12.34 -24 12 C-18.06 12 -12.12 12 -6 12 C-6 11.34 -6 10.68 -6 10 C-4.68 10 -3.36 10 -2 10 C-1.34 6.7 -0.68 3.4 0 0 Z " fill="#9CA2D9" transform="translate(420,296)"/>
  <path d="M0 0 C0.33 0 0.66 0 1 0 C1.66 4.62 2.32 9.24 3 14 C6.3174175 12.0095495 8.9083853 10.39562245 11.75 7.9375 C12.34296875 7.43089844 12.9359375 6.92429687 13.546875 6.40234375 C15.11764698 5.04224467 15.11764698 5.04224467 16 3 C16.66 3 17.32 3 18 3 C17.8125 4.8125 17.8125 4.8125 17 7 C15.36816893 8.05589069 13.69207001 9.0436126 12 10 C10.17622519 11.59180345 8.40323084 13.22317432 6.6484375 14.890625 C6.10445313 15.25671875 5.56046875 15.6228125 5 16 C4.01 15.67 3.02 15.34 2 15 C0.00813631 9.86308839 -0.1921227 5.47549707 0 0 Z " fill="#B1B7E5" transform="translate(86,288)"/>
  <path d="M0 0 C0.66 0.33 1.32 0.66 2 1 C1.67 1.99 1.34 2.98 1 4 C0.34 4 -0.32 4 -1 4 C-1.226875 4.7425 -1.45375 5.485 -1.6875 6.25 C-3.27106728 9.56795048 -5.03006273 10.87861623 -8 13 C-8.763125 13.5775 -9.52625 14.155 -10.3125 14.75 C-11.1478125 15.36875 -11.1478125 15.36875 -12 16 C-12.66 15.67 -13.32 15.34 -14 15 C-9.78731588 10.20193049 -5.58516999 5.44622545 -1 1 C-0.67 0.67 -0.34 0.34 0 0 Z " fill="#8990D6" transform="translate(225,218)"/>
  <path d="M0 0 C0.33 1.32 0.66 2.64 1 4 C0.34 4 -0.32 4 -1 4 C-1 4.66 -1 5.32 -1 6 C-2.32 6.33 -3.64 6.66 -5 7 C-5.04125 7.5775 -5.0825 8.155 -5.125 8.75 C-6.44065958 12.13312465 -8.96552364 13.19222685 -12 15 C-12.66 14.67 -13.32 14.34 -14 14 C-12.60919892 12.41224451 -11.21211596 10.82999061 -9.8125 9.25 C-8.64654297 7.92742187 -8.64654297 7.92742187 -7.45703125 6.578125 C-5.11544754 4.12113732 -2.69841735 2.05137234 0 0 Z " fill="#848AD5" transform="translate(257,187)"/>
  <path d="M0 0 C0.66 0.33 1.32 0.66 2 1 C1.3503125 1.8353125 1.3503125 1.8353125 0.6875 2.6875 C-1.0506796 4.9879895 -1.0506796 4.9879895 -2.5 7.5625 C-3.85673075 9.76718747 -4.97688521 11.39836746 -7 13 C-7.99 13 -8.98 13 -10 13 C-10 13.99 -10 14.98 -10 16 C-11.32 15.67 -12.64 15.34 -14 15 C-13.24074219 14.25234375 -12.48148438 13.5046875 -11.69921875 12.734375 C-10.69517864 11.73971844 -9.69127983 10.74491923 -8.6875 9.75 C-8.18798828 9.25886719 -7.68847656 8.76773438 -7.17382812 8.26171875 C-4.54328661 5.64859804 -2.12314838 3.04342089 0 0 Z " fill="#9397D9" transform="translate(198,245)"/>
  <path d="M0 0 C-1.59092052 4.13639336 -4.60474918 7.23213248 -8 10 C-8.66 10 -9.32 10 -10 10 C-10.2475 10.61875 -10.495 11.2375 -10.75 11.875 C-12.20628639 14.35068687 -13.37812506 14.95125002 -16 16 C-16 16.66 -16 17.32 -16 18 C-16.66 17.67 -17.32 17.34 -18 17 C-14.136441 12.51292716 -10.24721944 8.13242973 -6 4 C-4.9171875 2.8553125 -4.9171875 2.8553125 -3.8125 1.6875 C-2 0 -2 0 0 0 Z " fill="#E7EBFA" transform="translate(160,236)"/>
  <path d="M0 0 C8.25 0 16.5 0 25 0 C24.67 1.98 24.34 3.96 24 6 C23.34 6 22.68 6 22 6 C21.67 7.32 21.34 8.64 21 10 C19.68 10.33 18.36 10.66 17 11 C18.2739589 8.96166576 19.61061923 6.96147874 21 5 C21.66 5 22.32 5 23 5 C23 3.68 23 2.36 23 1 C15.41 1 7.82 1 0 1 C0 0.67 0 0.34 0 0 Z " fill="#D9DEF4" transform="translate(172,195)"/>
  <path d="M0 0 C0.33 0.66 0.66 1.32 1 2 C-8.0625 13.13392857 -8.0625 13.13392857 -14 15 C-11.90767216 10.81534431 -9.26695919 8.33501209 -5.71875 5.42578125 C-3.68297354 3.73701214 -1.83241986 1.90571666 0 0 Z " fill="#7179CD" transform="translate(414,207)"/>
  <path d="M0 0 C3.6344969 1.78126333 7.18884937 3.70197866 10.75 5.625 C11.35199219 5.94984375 11.95398438 6.2746875 12.57421875 6.609375 C14.04977297 7.40570585 15.52492686 8.20277839 17 9 C17 9.66 17 10.32 17 11 C14.69 10.67 12.38 10.34 10 10 C9.67 8.68 9.34 7.36 9 6 C7.6078125 5.9071875 7.6078125 5.9071875 6.1875 5.8125 C3 5 3 5 1.125 2.4375 C0.75375 1.633125 0.3825 0.82875 0 0 Z " fill="#C0C6EC" transform="translate(210,442)"/>
  <path d="M0 0 C0 3.20395416 -0.74335022 5.09399739 -2 8 C-2.99 8 -3.98 8 -5 8 C-5.33 8.99 -5.66 9.98 -6 11 C-6.66 11 -7.32 11 -8 11 C-8 11.66 -8 12.32 -8 13 C-9.65 13.66 -11.3 14.32 -13 15 C-12.25 13.0625 -12.25 13.0625 -11 11 C-9.66666667 10.66666667 -8.33333333 10.33333333 -7 10 C-5.99083967 8.23408113 -5.99083967 8.23408113 -5 6 C-3.4058849 3.93018071 -1.70877359 1.97857994 0 0 Z " fill="#C6CBEF" transform="translate(383,377)"/>
  <path d="M0 0 C2.39711711 0.45228625 4.79252818 0.9116008 7.1875 1.375 C7.86103516 1.50132813 8.53457031 1.62765625 9.22851562 1.7578125 C13.0141239 2.49646777 16.47612869 3.42623223 20 5 C20 5.33 20 5.66 20 6 C15.1666528 6.08333357 10.76307437 5.95261487 6 5 C6 4.34 6 3.68 6 3 C5.195625 2.87625 4.39125 2.7525 3.5625 2.625 C2.716875 2.41875 1.87125 2.2125 1 2 C0.67 1.34 0.34 0.68 0 0 Z " fill="#9197D9" transform="translate(322,63)"/>
  <path d="M0 0 C0 0.66 0 1.32 0 2 C-4.76705166 5.72742869 -10.50152903 8.53516818 -16 11 C-16.66 10.67 -17.32 10.34 -18 10 C-12.375 6 -12.375 6 -9 6 C-8.773125 5.38125 -8.54625 4.7625 -8.3125 4.125 C-6.36599536 0.97351629 -3.66041994 0 0 0 Z " fill="#CFD5F0" transform="translate(308,438)"/>
  <path d="M0 0 C2.475 0.495 2.475 0.495 5 1 C5 1.66 5 2.32 5 3 C6.299375 3.12375 7.59875 3.2475 8.9375 3.375 C11.15234375 3.5859375 11.15234375 3.5859375 13 4 C13.33 4.66 13.66 5.32 14 6 C15.64363134 6.72159424 17.31050386 7.39351421 19 8 C19 8.66 19 9.32 19 10 C13.25 8.25 13.25 8.25 11 6 C9.01656604 5.19567752 7.0065095 4.54418535 4.97265625 3.87890625 C2.79722113 2.90965298 1.57097314 1.76796037 0 0 Z " fill="#8189D2" transform="translate(201,437)"/>
  <path d="M0 0 C0.33 0.99 0.66 1.98 1 3 C-0.8125 5 -0.8125 5 -3 7 C-3.99 7 -4.98 7 -6 7 C-6 9.31 -6 11.62 -6 14 C-8 12 -8 12 -8.0625 9.25 C-6.58498078 4.73052945 -3.7447784 2.75725198 0 0 Z " fill="#8389D3" transform="translate(111,334)"/>
  <path d="M0 0 C4.95 0.99 4.95 0.99 10 2 C10 2.66 10 3.32 10 4 C10.886875 4.144375 11.77375 4.28875 12.6875 4.4375 C15.47117646 4.91019978 18.23483757 5.43070185 21 6 C21 6.33 21 6.66 21 7 C15.15766411 7.47370291 9.40518667 6.18820246 4 4 C1.6640625 1.890625 1.6640625 1.890625 0 0 Z " fill="#858BD5" transform="translate(280,51)"/>
  <path d="M0 0 C3.59634744 3.49359465 6.83451967 7.11098131 10 11 C9.67 11.66 9.34 12.32 9 13 C8.5875 12.54625 8.175 12.0925 7.75 11.625 C5.93591905 9.94049626 4.24714373 9.00734029 2 8 C2 6.68 2 5.36 2 4 C1.34 4 0.68 4 0 4 C0 2.68 0 1.36 0 0 Z " fill="#CACFEF" transform="translate(114,363)"/>
  <path d="M0 0 C0.33 0.66 0.66 1.32 1 2 C0.67 2.66 0.34 3.32 0 4 C-0.66 4 -1.32 4 -2 4 C-2.12375 4.61875 -2.2475 5.2375 -2.375 5.875 C-3 8 -3 8 -5 10 C-7.125 9.625 -7.125 9.625 -9 9 C-8.06725891 7.87105124 -7.12859878 6.74699124 -6.1875 5.625 C-5.66542969 4.99851562 -5.14335937 4.37203125 -4.60546875 3.7265625 C-3 2 -3 2 0 0 Z " fill="#858BD4" transform="translate(148,296)"/>
  <path d="M0 0 C0.66 0.33 1.32 0.66 2 1 C-1.56066796 7.02574577 -5.7246376 9.91641675 -12 13 C-11.0919838 11.86800647 -10.17316174 10.74467637 -9.25 9.625 C-8.48429688 8.68527344 -8.48429688 8.68527344 -7.703125 7.7265625 C-5.91098401 5.90975902 -4.27601946 5.10007607 -2 4 C-0.73195434 1.9664052 -0.73195434 1.9664052 0 0 Z " fill="#B6BCE9" transform="translate(190,202)"/>
  <path d="M0 0 C0.99 0 1.98 0 3 0 C1.59155282 3.21524305 -0.10344786 5.32183868 -2.625 7.75 C-3.57246094 8.67039062 -3.57246094 8.67039062 -4.5390625 9.609375 C-5.02117187 10.06828125 -5.50328125 10.5271875 -6 11 C-6.33 10.01 -6.66 9.02 -7 8 C-6.401875 7.4225 -5.80375 6.845 -5.1875 6.25 C-2.98007214 4.10224272 -2.98007214 4.10224272 -1.4375 1.75 C-0.963125 1.1725 -0.48875 0.595 0 0 Z " fill="#E2E7F9" transform="translate(351,265)"/>
  <path d="M0 0 C0.33 0.66 0.66 1.32 1 2 C-1.01577062 6.50584021 -3.83128248 8.49876949 -8 11 C-8.66 10.67 -9.32 10.34 -10 10 C-6.7 6.7 -3.4 3.4 0 0 Z " fill="#878DD6" transform="translate(268,176)"/>
  <path d="M0 0 C6.93 0.495 6.93 0.495 14 1 C14.33 1.99 14.66 2.98 15 4 C13.24908981 3.91245449 11.49920449 3.80426627 9.75 3.6875 C8.77546875 3.62949219 7.8009375 3.57148437 6.796875 3.51171875 C4 3 4 3 0 0 Z " fill="#C8CEF1" transform="translate(377,79)"/>
  <path d="M0 0 C1.32 0.33 2.64 0.66 4 1 C0.7 4.63 -2.6 8.26 -6 12 C-6 11.01 -6 10.02 -6 9 C-5 8 -4 7 -3 6 C-2.29289322 4.35008418 -1.62056011 2.68437744 -1 1 C-0.67 0.67 -0.34 0.34 0 0 Z " fill="#CDD2F3" transform="translate(237,203)"/>
  <path d="M0 0 C0 0.99 0 1.98 0 3 C-4.34285714 7 -4.34285714 7 -7 7 C-7.33 7.99 -7.66 8.98 -8 10 C-10.0625 10.6875 -10.0625 10.6875 -12 11 C-9.61041731 5.93970724 -6.78191129 4.52137141 -2 2 C-1.34 1.34 -0.68 0.68 0 0 Z " fill="#D1D7F5" transform="translate(409,162)"/>
  <path d="M0 0 C0.66 0.33 1.32 0.66 2 1 C0.625 3 0.625 3 -1 5 C-1.66 5 -2.32 5 -3 5 C-3.226875 5.78375 -3.45375 6.5675 -3.6875 7.375 C-5 10 -5 10 -7.625 11.3125 C-8.40875 11.539375 -9.1925 11.76625 -10 12 C-9.34 10.68 -8.68 9.36 -8 8 C-7.34 8 -6.68 8 -6 8 C-6 7.01 -6 6.02 -6 5 C-4.36368108 3.95107762 -2.69514137 2.95093297 -1 2 C-0.67 1.34 -0.34 0.68 0 0 Z " fill="#AFB5E5" transform="translate(390,178)"/>
  <path d="M0 0 C0 0.99 0 1.98 0 3 C-0.99 3.33 -1.98 3.66 -3 4 C-3.433125 4.928125 -3.433125 4.928125 -3.875 5.875 C-5.35958123 8.67920898 -7.23974247 9.54723288 -10 11 C-9.75 9.125 -9.75 9.125 -9 7 C-7.66666667 6.33333333 -6.33333333 5.66666667 -5 5 C-4.19471111 2.94999129 -4.19471111 2.94999129 -4 1 C-2.68 0.67 -1.36 0.34 0 0 Z " fill="#C7CBEF" transform="translate(400,219)"/>
  <path d="M0 0 C1.98 0 3.96 0 6 0 C5 2 5 2 2.625 2.8125 C-0.65753857 4.29745792 -1.23893197 5.93727298 -3 9 C-5.1875 10.3125 -5.1875 10.3125 -7 11 C-7 10.34 -7 9.68 -7 9 C-6.1028125 8.38125 -6.1028125 8.38125 -5.1875 7.75 C-2.42941013 5.54352811 -1.41933573 3.19350539 0 0 Z " fill="#C8CDEC" transform="translate(418,198)"/>
  <path d="M0 0 C2.94956528 1.36944102 5.52468811 2.87830409 8 5 C8 5.66 8 6.32 8 7 C9.32 7.33 10.64 7.66 12 8 C12 8.66 12 9.32 12 10 C11.01 10 10.02 10 9 10 C9 9.34 9 8.68 9 8 C8.39671875 7.90847656 7.7934375 7.81695312 7.171875 7.72265625 C4.46742737 6.82279508 3.7917686 5.79297981 2.25 3.4375 C1.82203125 2.79683594 1.3940625 2.15617187 0.953125 1.49609375 C0.48132813 0.75552734 0.48132813 0.75552734 0 0 Z " fill="#B6BDE7" transform="translate(144,396)"/>
  <path d="M0 0 C0.66 0.33 1.32 0.66 2 1 C1.38125 1.556875 0.7625 2.11375 0.125 2.6875 C-2.14857891 4.85508083 -2.14857891 4.85508083 -2.9375 7.6875 C-3.288125 8.450625 -3.63875 9.21375 -4 10 C-6.625 10.8125 -6.625 10.8125 -9 11 C-8.06558465 9.72689688 -7.12732889 8.456612 -6.1875 7.1875 C-5.66542969 6.47980469 -5.14335937 5.77210938 -4.60546875 5.04296875 C-3.16871123 3.21468607 -1.68184237 1.60103312 0 0 Z " fill="#9298D8" transform="translate(209,234)"/>
  <path d="M0 0 C1.37478516 0.01740234 1.37478516 0.01740234 2.77734375 0.03515625 C3.69644531 0.04417969 4.61554688 0.05320313 5.5625 0.0625 C6.27277344 0.07410156 6.98304688 0.08570313 7.71484375 0.09765625 C7.71484375 0.42765625 7.71484375 0.75765625 7.71484375 1.09765625 C6.62171875 1.22140625 5.52859375 1.34515625 4.40234375 1.47265625 C0.64102573 1.85230426 0.64102573 1.85230426 -2.28515625 4.09765625 C-4.60903572 4.49153413 -6.94309374 4.8325171 -9.28515625 5.09765625 C-7.89198748 2.31131871 -6.12535109 2.16272931 -3.28515625 1.09765625 C-2.28515625 0.09765625 -2.28515625 0.09765625 0 0 Z " fill="#DADEF4" transform="translate(232.28515625,46.90234375)"/>
  <path d="M0 0 C-0.66 0 -1.32 0 -2 0 C-2 0.66 -2 1.32 -2 2 C-5.96 3.98 -5.96 3.98 -10 6 C-9.67 4.35 -9.34 2.7 -9 1 C-3.375 -1.125 -3.375 -1.125 0 0 Z " fill="#7B84D0" transform="translate(324,427)"/>
  <path d="M0 0 C0.66 0.33 1.32 0.66 2 1 C1.09827532 2.17825358 0.17798498 3.34231577 -0.75 4.5 C-1.51570313 5.47453125 -1.51570313 5.47453125 -2.296875 6.46875 C-4 8 -4 8 -8 8 C-8 7.34 -8 6.68 -8 6 C-6.25 4.4921875 -6.25 4.4921875 -4 2.875 C-3.2575 2.33617187 -2.515 1.79734375 -1.75 1.2421875 C-1.1725 0.83226562 -0.595 0.42234375 0 0 Z " fill="#B3B7E7" transform="translate(358,400)"/>
  <path d="M0 0 C0.33 0.66 0.66 1.32 1 2 C-3.75 6.875 -3.75 6.875 -6 8 C-8.125 7.0625 -8.125 7.0625 -10 6 C-9.67 5.01 -9.34 4.02 -9 3 C-8.67 3.66 -8.34 4.32 -8 5 C-4.62496331 3.8141763 -2.35277269 2.72426311 0 0 Z " fill="#E2E6F5" transform="translate(97,298)"/>
  <path d="M0 0 C0.99 0 1.98 0 3 0 C1.4169423 4.2742558 -1.50568404 6.26531794 -5 9 C-5 8.01 -5 7.02 -5 6 C-4.34 6 -3.68 6 -3 6 C-2.690625 5.195625 -2.38125 4.39125 -2.0625 3.5625 C-1 1 -1 1 0 0 Z " fill="#E6EAFA" transform="translate(269,171)"/>
  <path d="M0 0 C0.66 0.33 1.32 0.66 2 1 C-1.49087093 5.0042343 -3.64951939 6.62671065 -9 7 C-3.51752022 1.21293801 -3.51752022 1.21293801 0 0 Z " fill="#D5DAF3" transform="translate(320,429)"/>
  <path d="M0 0 C0.33 0 0.66 0 1 0 C1.08131463 1.43655854 1.13933559 2.8744483 1.1875 4.3125 C1.22230469 5.11300781 1.25710938 5.91351563 1.29296875 6.73828125 C1 9 1 9 -0.26171875 10.79296875 C-2 12 -2 12 -6 12 C-6 11.34 -6 10.68 -6 10 C-4.68 10 -3.36 10 -2 10 C-1.34 6.7 -0.68 3.4 0 0 Z " fill="#8990D3" transform="translate(420,296)"/>
  <path d="M0 0 C0.6875 1.8125 0.6875 1.8125 1 4 C-0.1875 5.8125 -0.1875 5.8125 -2 7 C-4.1875 6.6875 -4.1875 6.6875 -6 6 C-4 4 -2 2 0 0 Z " fill="#848AD5" transform="translate(155,289)"/>
  <path d="M0 0 C4.95 0 9.9 0 15 0 C14.67 1.32 14.34 2.64 14 4 C13.01 4.495 13.01 4.495 12 5 C12 3.68 12 2.36 12 1 C8.04 1 4.08 1 0 1 C0 0.67 0 0.34 0 0 Z " fill="#7B82CC" transform="translate(179,197)"/>
  <path d="M0 0 C2.97 0 5.94 0 9 0 C9 0.66 9 1.32 9 2 C10.32 2.33 11.64 2.66 13 3 C8.07872966 3.16682272 4.49656104 3.24828052 0 1 C0 0.67 0 0.34 0 0 Z " fill="#838BD4" transform="translate(363,76)"/>
  <path d="M0 0 C1.32 0.33 2.64 0.66 4 1 C1.03 4.3 -1.94 7.6 -5 11 C-5 7.06764531 -3.45054659 5.97035951 -1 3 C-0.67 2.01 -0.34 1.02 0 0 Z " fill="#C6CBEE" transform="translate(116,324)"/>
  <path d="M0 0 C0.33 0.99 0.66 1.98 1 3 C-0.43359375 5.04296875 -0.43359375 5.04296875 -2.4375 7.1875 C-3.09621094 7.90292969 -3.75492187 8.61835938 -4.43359375 9.35546875 C-4.95050781 9.89816406 -5.46742188 10.44085938 -6 11 C-6 6.78865621 -5.36978762 5.38782604 -2.4375 2.3125 C-1.633125 1.549375 -0.82875 0.78625 0 0 Z " fill="#E8EDF8" transform="translate(267,303)"/>
  <path d="M0 0 C1.32 0.33 2.64 0.66 4 1 C1.69 3.64 -0.62 6.28 -3 9 C-3 5.69727388 -2.43339634 2.43339634 0 0 Z " fill="#7F85CE" transform="translate(108,282)"/>
  <path d="M0 0 C0.66 0.33 1.32 0.66 2 1 C0.6875 2.5 0.6875 2.5 -1 4 C-1.99 4 -2.98 4 -4 4 C-4 4.99 -4 5.98 -4 7 C-5.32 6.67 -6.64 6.34 -8 6 C-3.375 1.125 -3.375 1.125 0 0 Z " fill="#7F86D3" transform="translate(192,254)"/>
  <path d="M0 0 C1.32 0.33 2.64 0.66 4 1 C0.535 3.97 0.535 3.97 -3 7 C-3.33 6.01 -3.66 5.02 -4 4 C-2.25 1.9375 -2.25 1.9375 0 0 Z " fill="#E5EAFA" transform="translate(366,250)"/>
  <path d="M0 0 C0 0.66 0 1.32 0 2 C-8.03571429 4.27678571 -8.03571429 4.27678571 -12 3 C-4.71428571 -0.42857143 -4.71428571 -0.42857143 0 0 Z " fill="#949CDA" transform="translate(162,71)"/>
  <path d="M0 0 C0.66 0.33 1.32 0.66 2 1 C-0.97 3.64 -3.94 6.28 -7 9 C-7.66 8.67 -8.32 8.34 -9 8 C-6.03 5.36 -3.06 2.72 0 0 Z " fill="#6A72C9" transform="translate(215,231)"/>
  <path d="M0 0 C0.99 0.33 1.98 0.66 3 1 C3.33 3.64 3.66 6.28 4 9 C3.34 9 2.68 9 2 9 C2 8.34 2 7.68 2 7 C1.34 7 0.68 7 0 7 C0 4.69 0 2.38 0 0 Z " fill="#DDE2F5" transform="translate(101,341)"/>
  <path d="M0 0 C0.33 0.66 0.66 1.32 1 2 C-0.28062485 3.7074998 -1.61767557 5.37373596 -3 7 C-3.66 7 -4.32 7 -5 7 C-5 7.66 -5 8.32 -5 9 C-5.66 9 -6.32 9 -7 9 C-5.44499019 5.18315774 -2.96404505 2.80804268 0 0 Z " fill="#7F85D1" transform="translate(121,323)"/>
  <path d="M0 0 C0.66 0 1.32 0 2 0 C1.6875 1.9375 1.6875 1.9375 1 4 C0.01 4.33 -0.98 4.66 -2 5 C-2.33 5.99 -2.66 6.98 -3 8 C-3.99 8 -4.98 8 -6 8 C-6 7.34 -6 6.68 -6 6 C-5.34 6 -4.68 6 -4 6 C-3.67 5.01 -3.34 4.02 -3 3 C-2.34 3 -1.68 3 -1 3 C-0.67 2.01 -0.34 1.02 0 0 Z " fill="#AFB5E8" transform="translate(277,291)"/>
  <path d="M0 0 C0 3.97054597 -1.3139381 5.16471244 -4 8 C-6.25 8.8125 -6.25 8.8125 -8 9 C-6.4169423 4.7257442 -3.49431596 2.73468206 0 0 Z " fill="#959CD9" transform="translate(364,256)"/>
  <path d="M0 0 C0.75 1.75 0.75 1.75 1 4 C-0.8125 6.25 -0.8125 6.25 -3 8 C-3.66 8 -4.32 8 -5 8 C-3.8141763 4.62496331 -2.72426311 2.35277269 0 0 Z " fill="#D1D6F3" transform="translate(396,173)"/>
  <path d="M0 0 C5.94 1.485 5.94 1.485 12 3 C12 3.33 12 3.66 12 4 C9.03 4 6.06 4 3 4 C3 3.34 3 2.68 3 2 C2.01 1.67 1.02 1.34 0 1 C0 0.67 0 0.34 0 0 Z " fill="#7D85CE" transform="translate(386,82)"/>
  <path d="M0 0 C0 0.66 0 1.32 0 2 C-5.41538462 5.07692308 -5.41538462 5.07692308 -8.375 4.6875 C-8.91125 4.460625 -9.4475 4.23375 -10 4 C-6.74659338 1.32755885 -4.23938937 0 0 0 Z " fill="#CFD6F3" transform="translate(276,457)"/>
  <path d="M0 0 C0.33 0.99 0.66 1.98 1 3 C-2.75 6 -2.75 6 -5 6 C-5 6.66 -5 7.32 -5 8 C-5.99 7.67 -6.98 7.34 -8 7 C-5.36 4.69 -2.72 2.38 0 0 Z " fill="#777DD0" transform="translate(235,210)"/>
  <path d="M0 0 C1.65 0 3.3 0 5 0 C5.99 1.98 6.98 3.96 8 6 C4.63408134 4.55746343 2.48952921 2.66735273 0 0 Z " fill="#7F87D1" transform="translate(159,408)"/>
  <path d="M0 0 C0.33 0.99 0.66 1.98 1 3 C-1.31 4.98 -3.62 6.96 -6 9 C-6.66 8.67 -7.32 8.34 -8 8 C-5.36 5.36 -2.72 2.72 0 0 Z " fill="#9299D6" transform="translate(183,261)"/>
  <path d="M0 0 C0.33 0.99 0.66 1.98 1 3 C-1.68841859 5.25245881 -3.64641875 6.88213958 -7 8 C-7 7.34 -7 6.68 -7 6 C-5.46875 4.4921875 -5.46875 4.4921875 -3.5 2.875 C-2.8503125 2.33617187 -2.200625 1.79734375 -1.53125 1.2421875 C-1.0259375 0.83226562 -0.520625 0.42234375 0 0 Z " fill="#E4E7FA" transform="translate(328,242)"/>
  <path d="M0 0 C0.66 0 1.32 0 2 0 C1.45276317 3.37462715 0.9451 5.08235 -1 8 C-1.66 8 -2.32 8 -3 8 C-3 7.01 -3 6.02 -3 5 C-2.34 5 -1.68 5 -1 5 C-0.67 3.35 -0.34 1.7 0 0 Z " fill="#6B73C9" transform="translate(189,198)"/>
  <path d="M0 0 C2.475 0.99 2.475 0.99 5 2 C5 2.99 5 3.98 5 5 C5.66 5 6.32 5 7 5 C6.67 5.66 6.34 6.32 6 7 C1.125 3.375 1.125 3.375 0 0 Z " fill="#8289CE" transform="translate(127,378)"/>
  <path d="M0 0 C2.0625 0.4375 2.0625 0.4375 4 1 C1.03 3.475 1.03 3.475 -2 6 C-1.125 1.125 -1.125 1.125 0 0 Z " fill="#E1E6F9" transform="translate(157,283)"/>
  <path d="M0 0 C6.57403846 -0.37211538 6.57403846 -0.37211538 8.73046875 1.51171875 C9.35888672 2.24841797 9.35888672 2.24841797 10 3 C8.5199159 2.88637738 7.04089926 2.75877092 5.5625 2.625 C4.73878906 2.55539063 3.91507812 2.48578125 3.06640625 2.4140625 C2.38449219 2.27742188 1.70257813 2.14078125 1 2 C0.67 1.34 0.34 0.68 0 0 Z " fill="#D9DEF6" transform="translate(324,63)"/>
  <path d="M0 0 C2.64 0 5.28 0 8 0 C8 0.33 8 0.66 8 1 C3.05 2.485 3.05 2.485 -2 4 C-1.34 2.68 -0.68 1.36 0 0 Z " fill="#E4E9FA" transform="translate(187,60)"/>
</svg>
